<svg preserveAspectRatio="none" overflow="visible" style="display: block;" width="12" height="12" viewBox="0 0 12 12" fill="none" xmlns="http://www.w3.org/2000/svg">
<g id="ArrowsClockwise">
<path id="Vector" d="M10.6875 2.25V4.5C10.6875 4.64918 10.6282 4.79226 10.5227 4.89775C10.4173 5.00324 10.2742 5.0625 10.125 5.0625H7.875C7.72582 5.0625 7.58274 5.00324 7.47725 4.89775C7.37176 4.79226 7.3125 4.64918 7.3125 4.5C7.3125 4.35082 7.37176 4.20774 7.47725 4.10225C7.58274 3.99676 7.72582 3.9375 7.875 3.9375H8.76562L8.4 3.57187C7.73804 2.90663 6.8391 2.53134 5.90062 2.52844H5.88047C4.95038 2.5264 4.05688 2.89064 3.39328 3.54234C3.28661 3.64665 3.14288 3.70431 2.9937 3.70264C2.84452 3.70097 2.70212 3.6401 2.59781 3.53344C2.49351 3.42677 2.43585 3.28304 2.43752 3.13386C2.43919 2.98468 2.50005 2.84227 2.60672 2.73797C3.48057 1.8799 4.65718 1.40047 5.88188 1.40344H5.90625C7.14176 1.40681 8.32536 1.90065 9.19687 2.77641L9.5625 3.14062V2.25C9.5625 2.10082 9.62176 1.95774 9.72725 1.85225C9.83274 1.74676 9.97582 1.6875 10.125 1.6875C10.2742 1.6875 10.4173 1.74676 10.5227 1.85225C10.6282 1.95774 10.6875 2.10082 10.6875 2.25ZM8.60672 8.45766C7.94278 9.1097 7.04871 9.47397 6.11813 9.47156H6.09797C5.1595 9.46866 4.26055 9.09337 3.59859 8.42812L3.23438 8.0625H4.125C4.27418 8.0625 4.41726 8.00324 4.52275 7.89775C4.62824 7.79226 4.6875 7.64918 4.6875 7.5C4.6875 7.35082 4.62824 7.20774 4.52275 7.10225C4.41726 6.99676 4.27418 6.9375 4.125 6.9375H1.875C1.72582 6.9375 1.58274 6.99676 1.47725 7.10225C1.37176 7.20774 1.3125 7.35082 1.3125 7.5V9.75C1.3125 9.89918 1.37176 10.0423 1.47725 10.1477C1.58274 10.2532 1.72582 10.3125 1.875 10.3125C2.02418 10.3125 2.16726 10.2532 2.27275 10.1477C2.37824 10.0423 2.4375 9.89918 2.4375 9.75V8.85937L2.80312 9.225C3.67487 10.1002 4.85845 10.5936 6.09375 10.5966H6.12C7.3447 10.5995 8.5213 10.1201 9.39516 9.26203C9.44797 9.21038 9.4901 9.14884 9.51913 9.08091C9.54816 9.01299 9.56353 8.94001 9.56436 8.86614C9.56518 8.79227 9.55145 8.71897 9.52395 8.65041C9.49645 8.58185 9.45571 8.51938 9.40406 8.46656C9.35242 8.41375 9.29087 8.37162 9.22295 8.34259C9.15502 8.31356 9.08204 8.29819 9.00817 8.29736C8.93431 8.29653 8.861 8.31026 8.79244 8.33777C8.72388 8.36527 8.66141 8.40601 8.60859 8.45766H8.60672Z" fill="white"/>
</g>
</svg>
